<?xml version="1.0" encoding="utf-8"?>
<!-- Generator: Adobe Illustrator 24.0.0, SVG Export Plug-In . SVG Version: 6.00 Build 0)  -->
<svg version="1.1" id="Layer_1" xmlns="http://www.w3.org/2000/svg" xmlns:xlink="http://www.w3.org/1999/xlink" x="0px" y="0px"
	 viewBox="0 0 512 512" style="enable-background:new 0 0 512 512;" xml:space="preserve">
<style type="text/css">
	.st0{fill:none;stroke:#000000;stroke-miterlimit:10;}
	.st1{fill:#C2000B;}
	.st2{fill:none;stroke:#4D1F03;stroke-miterlimit:10;}
	.st3{fill:#4D1F03;}
	.st4{font-family:'MyriadPro-Regular';}
	.st5{font-size:12px;}
</style>
<path class="st0" d="M73,292.2c0-46.43,41.51-84,92.8-84"/>
<path class="st0" d="M256,124.91c-0.35,46.43-42.14,83.68-93.44,83.29"/>
<circle class="st0" cx="259.35" cy="118.35" r="8.55"/>
<circle class="st0" cx="75.75" cy="302.55" r="10.35"/>
<g>
	<g>
		<path class="st1" d="M76.2,303.7c3.22,0,3.22-5,0-5C72.98,298.7,72.98,303.7,76.2,303.7L76.2,303.7z"/>
	</g>
</g>
<g>
	<g>
		<path class="st1" d="M259.8,120.1c3.22,0,3.22-5,0-5C256.58,115.1,256.58,120.1,259.8,120.1L259.8,120.1z"/>
	</g>
</g>
<rect x="235.2" y="208.2" class="st2" width="180" height="104.7"/>
<g>
	<g>
		<path class="st3" d="M259.19,222.01c29.75,0.28,59.49,0.57,89.24,0.85c-0.53-3.93-1.06-7.86-1.6-11.79
			c-32.87,5.53-65.58,11.98-98.09,19.34c-6.69,1.51-5.08,11.74,1.6,11.79c49.59,0.31,99.18,0.32,148.77,0.03
			c7.73-0.05,7.72-11.84,0-12c-47.23-0.99-94.49-0.78-141.71,0.63c0,4,0,8,0,12c33.08-1.37,65.97-5.9,98.18-13.53
			c6.6-1.56,5.16-11.88-1.6-11.79c-18.88,0.27-37.64,2.89-55.87,7.82c-6.33,1.71-5.32,12.39,1.6,11.79
			c24.24-2.12,48.34-5.69,72.15-10.73c7.6-1.61,4.33-12.97-3.19-11.57c-23.64,4.39-47.29,8.83-70.52,15.12
			c-6.57,1.78-5.17,11.68,1.6,11.79c23.71,0.36,47.42,0.73,71.13,1.09c-0.53-3.93-1.06-7.86-1.6-11.79
			c-25.37,5.41-50.75,10.82-76.12,16.23c-7.01,1.49-4.77,11.25,1.6,11.79c24.15,2.02,48.13-2.27,71.67-7.21
			c7.65-1.61,4.3-12.79-3.19-11.57c-32.17,5.24-64.36,10.43-96.87,13.03c0.53,3.93,1.06,7.86,1.6,11.79
			c22.79-6.28,45.91-11.2,69.29-14.74c6.61-1,5.13-12.58-1.6-11.79c-14.37,1.7-28.73,3.39-43.1,5.09c0.53,3.93,1.06,7.86,1.6,11.79
			c11.37-4.63,23.26-7.82,35.47-9.14c-0.53-3.93-1.06-7.86-1.6-11.79c-25,4.41-49.92,9.27-74.75,14.58
			c-6.83,1.46-4.95,11.53,1.6,11.79c21.73,0.86,43.48,1.05,65.22,0.59c-0.53-3.93-1.06-7.86-1.6-11.79
			c-20.02,4.21-40.14,7.92-60.34,11.13c-6.68,1.06-5.11,12.11,1.6,11.79c35.66-1.74,71.36-2.04,107.04-0.9
			c-0.53-3.93-1.06-7.86-1.6-11.79c-30.37,6.67-60.85,12.78-91.45,18.33c-6.57,1.19-5.14,12.64,1.6,11.79
			c30.48-3.86,60.67-9.42,90.49-16.83c7.06-1.75,4.7-11.05-1.6-11.79c-20.86-2.44-40.46,6.8-61.08,7.6
			c1.41,3.41,2.83,6.83,4.24,10.24c7.48-6.94,15.12-13.71,22.94-20.27c3.79-3.18,7.63-6.31,11.5-9.39c0.97-0.77,1.93-1.55,2.91-2.3
			c1.74-1.32,2.59-0.93,0.89-2.6c-2.78-2.74,0.53,2.87,1.28,3.68c5.59,6.1,14.89,3.48,21.87,2.21c2.59-0.47,5.17-0.94,7.76-1.41
			c1.62-0.29,3.23-0.59,4.85-0.88c2.55-0.47,3.32,0.34,1.85-2.73c-1.55-3.23-1.09-1.98-2.28-0.02c-0.59,0.97-1.22,1.9-1.93,2.79
			c-1.58,1.98-3.45,3.66-5.43,5.24c-4.67,3.75,0.37,11.96,5.84,10.03c7.93-2.8,15.57-6.23,22.88-10.4
			c6.82-3.88,0.84-13.57-6.06-10.36c-11.11,5.17-22.48,9.67-34.1,13.55c1.54,3.66,3.08,7.31,4.62,10.97
			c8.06-4.29,15.51-9.33,22.63-15.04c5.27-4.22-0.73-10.78-5.84-10.03c-10.34,1.53-20.13,4.77-29.47,9.44
			c-6.6,3.3-1.55,11.88,4.62,10.97c15.65-2.31,31.12-5.55,46.38-9.73c7.54-2.07,4.31-12.99-3.19-11.57
			c-25.56,4.84-51.03,10.19-76.38,16.05c-6.44,1.49-5.21,12.62,1.6,11.79c12.83-1.57,25.71-2.66,38.63-3.18
			c6.13-0.25,12.27-0.37,18.41-0.37c5.35,0,11.86-0.84,16.64,2.03c0-3.45,0-6.91,0-10.36c-14.26,9.14-30.81,12.67-47.17,16.09
			c-7.59,1.58-4.34,13.01,3.19,11.57c16.59-3.17,33.17-6.34,49.76-9.51c-1.06-3.86-2.13-7.71-3.19-11.57
			c-10.83,2.86-21.76,5.25-32.79,7.18c1.06,3.86,2.13,7.71,3.19,11.57c5.22-0.96,10.43-1.92,15.65-2.88
			c6.78-1.25,5.01-11.74-1.6-11.79c-7.92-0.05-15.28,1.73-22.43,5.11c-4.38,2.08-3.65,10.28,1.43,10.97
			c9.22,1.25,18.03,1.19,27.23-0.24c-1.06-3.86-2.13-7.71-3.19-11.57c-16.76,5.98-34.12,9.04-51.92,9.03
			c1.01,3.73,2.02,7.45,3.03,11.18c15.12-11.48,32.15-19.6,50.62-24.01c-2.46-2.46-4.92-4.92-7.38-7.38
			c-0.79,3.02-7.69,4.7-10.2,5.78c-4.13,1.78-8.26,3.57-12.39,5.35c-8.85,3.82-17.7,7.64-26.55,11.46
			c-5.4,2.33-2.73,11.74,3.03,11.18c18.17-1.76,36.4-2.11,54.63-1.05c-1.93-2.53-3.86-5.06-5.79-7.6c-0.54,2.86-4.14,3.51-6.6,4.21
			c-5.26,1.5-10.58,2.83-15.86,4.24c-10.26,2.74-20.53,5.48-30.79,8.22c-6.33,1.69-5.31,12.47,1.6,11.79
			c16.93-1.67,33.42-5.45,49.28-11.65c5.89-2.3,5.68-12-1.6-11.79c-21.35,0.62-42.71,0.58-64.06-0.12c0,4,0,8,0,12
			c24.16-1.84,48.39-1.59,72.6-1.28c0-4,0-8,0-12c-38.91-0.01-77.81-0.03-116.72-0.04c0,4,0,8,0,12
			c16.17-0.04,32.34-0.07,48.52-0.11c0-4,0-8,0-12c-17.68,1.57-35.35,3.14-53.03,4.71c0.53,3.93,1.06,7.86,1.6,11.79
			c21.92-7.01,44.65-9.75,67.61-8.19c-0.53-3.93-1.06-7.86-1.6-11.79c-21.91,5.13-44.05,9.2-66.37,12.05
			c0.53,3.93,1.06,7.86,1.6,11.79c21.04-4.9,42.35-8.25,63.88-9.97c7.6-0.6,7.83-11.97,0-12c-27.03-0.09-54.06-0.18-81.1-0.27
			c0.53,3.93,1.06,7.86,1.6,11.79c26.54-6.56,53.32-12.02,80.31-16.36c-1.06-3.86-2.13-7.71-3.19-11.57
			c-23.54,4.77-47.33,7.91-71.3,9.41c-7.66,0.48-7.74,12.43,0,12c15.08-0.83,30.14-0.47,45.16,1.09c-1.01-3.73-2.02-7.45-3.03-11.18
			c-11.19,6.79-24.07,9.09-36.78,11.33c-5,0.88-5.91,8.77-1.43,10.97c40.48,19.84,82.54-2.82,124.06-4.41
			c-0.53-3.93-1.06-7.86-1.6-11.79c-10.67,2.07-21.33,4.14-32,6.2c-6.77,1.31-5.02,11.74,1.6,11.79c13.1,0.1,26.2,0.19,39.3,0.29
			c-0.53-3.93-1.06-7.86-1.6-11.79c-6.67,2.51-13.58,4.43-20.65,5.38c-3.24,0.43-5.96,2.45-6,6c-0.03,2.91,2.79,6.43,6,6
			c8.21-1.1,16.08-2.89,23.84-5.81c6.08-2.29,5.55-11.73-1.6-11.79c-13.1-0.1-26.2-0.19-39.3-0.29c0.53,3.93,1.06,7.86,1.6,11.79
			c10.67-2.07,21.33-4.14,32-6.2c6.65-1.29,5.12-12.04-1.6-11.79c-20.87,0.8-40.92,6.64-61.37,10.28
			c-18.72,3.33-39.12,4.35-56.64-4.23c-0.48,3.66-0.96,7.31-1.43,10.97c13.76-2.42,27.55-5.19,39.65-12.54
			c5.43-3.3,2.66-10.59-3.03-11.18c-15.02-1.56-30.08-1.93-45.16-1.09c0,4,0,8,0,12c25.03-1.57,49.92-4.85,74.49-9.83
			c7.65-1.55,4.3-12.78-3.19-11.57c-26.99,4.35-53.77,9.81-80.31,16.36c-6.62,1.64-5.14,11.76,1.6,11.79
			c27.03,0.09,54.06,0.18,81.1,0.27c0-4,0-8,0-12c-22.59,1.8-45,5.25-67.07,10.39c-6.43,1.5-5.21,12.65,1.6,11.79
			c23.39-2.98,46.6-7.1,69.56-12.47c6.89-1.61,4.89-11.34-1.6-11.79c-23.92-1.63-47.97,1.31-70.8,8.61
			c-6.12,1.96-5.46,12.41,1.6,11.79c17.68-1.57,35.35-3.14,53.03-4.71c7.57-0.67,7.85-12.02,0-12c-16.17,0.04-32.34,0.07-48.52,0.11
			c-7.72,0.02-7.73,12,0,12c38.91,0.01,77.81,0.03,116.72,0.04c7.73,0,7.73-11.9,0-12c-24.21-0.31-48.44-0.56-72.6,1.28
			c-7.63,0.58-7.8,11.74,0,12c21.35,0.7,42.71,0.74,64.06,0.12c-0.53-3.93-1.06-7.86-1.6-11.79c-14.81,5.78-30.26,9.66-46.09,11.22
			c0.53,3.93,1.06,7.86,1.6,11.79c12.75-3.41,25.5-6.81,38.25-10.22c8.6-2.3,21.39-4.23,23.38-14.83c0.75-3.97-1.67-7.36-5.79-7.6
			c-18.23-1.06-36.46-0.71-54.63,1.05c1.01,3.73,2.02,7.45,3.03,11.18c10.62-4.59,21.24-9.17,31.86-13.76
			c8.1-3.5,20.25-6.27,22.79-16.01c1.18-4.53-2.93-8.44-7.38-7.38c-19.38,4.62-37.62,13.17-53.49,25.21
			c-4.45,3.38-3.45,11.18,3.03,11.18c18.79,0.02,37.41-3.14,55.11-9.45c7.38-2.63,4.38-12.75-3.19-11.57
			c-6.86,1.07-13.97,1.18-20.85,0.24c0.48,3.66,0.96,7.31,1.43,10.97c5.19-2.46,10.65-3.51,16.37-3.47
			c-0.53-3.93-1.06-7.86-1.6-11.79c-5.22,0.96-10.43,1.92-15.65,2.88c-7.61,1.4-4.36,12.89,3.19,11.57
			c11.03-1.93,21.96-4.32,32.79-7.18c7.55-1.99,4.31-13.01-3.19-11.57c-16.59,3.17-33.17,6.34-49.76,9.51
			c1.06,3.86,2.13,7.71,3.19,11.57c17.36-3.62,34.91-7.6,50.04-17.3c3.78-2.42,3.98-7.98,0-10.36c-4.9-2.93-10.31-3.51-15.92-3.62
			c-7.1-0.14-14.22-0.04-21.32,0.18c-14.21,0.45-28.39,1.59-42.5,3.32c0.53,3.93,1.06,7.86,1.6,11.79
			c25.35-5.85,50.82-11.2,76.38-16.05c-1.06-3.86-2.13-7.71-3.19-11.57c-15.26,4.18-30.73,7.43-46.38,9.73
			c1.54,3.66,3.08,7.31,4.62,10.97c8.41-4.2,17.32-6.86,26.61-8.23c-1.95-3.34-3.89-6.69-5.84-10.03
			c-6.3,5.04-13.08,9.37-20.2,13.16c-5.93,3.16-1.88,13.14,4.62,10.97c12.6-4.21,24.93-9.15,36.97-14.76
			c-2.02-3.45-4.04-6.91-6.06-10.36c-6.42,3.66-13.04,6.73-20.01,9.19c1.95,3.34,3.89,6.69,5.84,10.03
			c5.65-4.53,19.46-20.31,7.37-25.77c-5.1-2.3-12.84,0.73-18.04,1.68c-3.55,0.65-7.1,1.38-10.66,1.95
			c-1.04,0.16-2.06,0.38-3.12,0.38c-0.25,0-2.68-0.51-1.73,0.24c-0.64-0.5-0.89-2.24-1.32-2.94c-0.65-1.07-1.44-1.9-2.46-2.61
			c-2.3-1.58-5.09-1.88-7.74-1.15c-5.5,1.52-10.31,6.68-14.64,10.19c-10.58,8.56-20.85,17.49-30.82,26.75
			c-3.75,3.48-0.9,10.44,4.24,10.24c20.59-0.8,40.34-10.03,61.08-7.6c-0.53-3.93-1.06-7.86-1.6-11.79
			c-28.75,7.15-57.9,12.68-87.3,16.4c0.53,3.93,1.06,7.86,1.6,11.79c30.59-5.55,61.08-11.66,91.45-18.33
			c6.79-1.49,4.99-11.58-1.6-11.79c-35.68-1.13-71.39-0.83-107.04,0.9c0.53,3.93,1.06,7.86,1.6,11.79
			c20.21-3.2,40.32-6.91,60.34-11.13c6.65-1.4,5.12-11.93-1.6-11.79c-21.74,0.46-43.49,0.27-65.22-0.59
			c0.53,3.93,1.06,7.86,1.6,11.79c24.83-5.31,49.75-10.17,74.75-14.58c6.58-1.16,5.15-12.52-1.6-11.79
			c-13.33,1.45-26.23,4.51-38.66,9.57c-2.8,1.14-4.73,3.39-4.3,6.58c0.36,2.67,2.92,5.55,5.89,5.2c14.37-1.7,28.73-3.39,43.1-5.09
			c-0.53-3.93-1.06-7.86-1.6-11.79c-23.37,3.54-46.5,8.46-69.29,14.74c-6.32,1.74-5.33,12.34,1.6,11.79
			c33.58-2.68,66.84-8.04,100.06-13.46c-1.06-3.86-2.13-7.71-3.19-11.57c-22.57,4.74-45.34,8.72-68.48,6.78
			c0.53,3.93,1.06,7.86,1.6,11.79c25.37-5.41,50.75-10.82,76.12-16.23c6.75-1.44,5.03-11.68-1.6-11.79
			c-23.71-0.36-47.42-0.73-71.13-1.09c0.53,3.93,1.06,7.86,1.6,11.79c23.23-6.29,46.88-10.73,70.52-15.12
			c-1.06-3.86-2.13-7.71-3.19-11.57c-22.77,4.83-45.77,8.28-68.96,10.3c0.53,3.93,1.06,7.86,1.6,11.79
			c17.24-4.66,34.82-7.13,52.68-7.39c-0.53-3.93-1.06-7.86-1.6-11.79c-31.2,7.39-62.95,11.77-94.99,13.1c-7.69,0.32-7.75,12.23,0,12
			c47.22-1.41,94.48-1.62,141.71-0.63c0-4,0-8,0-12c-49.59,0.29-99.18,0.28-148.77-0.03c0.53,3.93,1.06,7.86,1.6,11.79
			c32.51-7.36,65.22-13.81,98.09-19.34c6.81-1.15,4.98-11.72-1.6-11.79c-29.75-0.28-59.49-0.57-89.24-0.85
			C251.46,209.94,251.46,221.94,259.19,222.01L259.19,222.01z"/>
	</g>
</g>
<text transform="matrix(1 0 0 1 283.2384 265.8389)" class="st4 st5">ПАМАГИТЕ ВИТЕ!!!!</text>
</svg>
